<svg xmlns="http://www.w3.org/2000/svg" viewBox="0 0 1200 800" preserveAspectRatio="xMidYMid slice">
  <defs>
    <linearGradient id="sky" x1="0" y1="0" x2="0" y2="1">
      <stop offset="0%" stop-color="#2a1f73"/>
      <stop offset="45%" stop-color="#6f4db8"/>
      <stop offset="70%" stop-color="#c07ad9"/>
      <stop offset="100%" stop-color="#d9a2df"/>
    </linearGradient>
    <linearGradient id="ground" x1="0" y1="0" x2="0" y2="1">
      <stop offset="0%" stop-color="#5d4dc7"/>
      <stop offset="100%" stop-color="#5a3ea7"/>
    </linearGradient>
    <filter id="soft" x="-20%" y="-20%" width="140%" height="140%">
      <feGaussianBlur stdDeviation="6"/>
    </filter>
  </defs>

  <rect width="1200" height="800" fill="url(#sky)"/>
  <rect y="500" width="1200" height="300" fill="url(#ground)"/>

  <circle cx="1030" cy="110" r="48" fill="#f9f2ff"/>
  <circle cx="1045" cy="95" r="42" fill="#2a1f73"/>

  <rect x="35" y="120" width="130" height="460" rx="10" fill="#7e73da"/>
  <rect x="72" y="90" width="85" height="500" rx="8" fill="#9384ec"/>
  <rect x="108" y="170" width="55" height="420" rx="6" fill="#9e8ef4"/>

  <path d="M330 495 C 480 420, 690 440, 860 485 L 860 545 L 330 545 Z" fill="#7a63d6" opacity="0.65"/>
  <path d="M260 535 C 410 470, 640 490, 890 530 L 890 580 L 260 580 Z" fill="#6a54c8" opacity="0.7"/>

  <rect x="0" y="640" width="1200" height="160" fill="#593ea8" opacity="0.75"/>
  <rect x="0" y="610" width="1200" height="20" fill="#7f68d8" opacity="0.55"/>

  <g fill="#ffffff" opacity="0.9" filter="url(#soft)">
    <circle cx="180" cy="130" r="2"/>
    <circle cx="280" cy="90" r="1.5"/>
    <circle cx="390" cy="180" r="1.5"/>
    <circle cx="520" cy="140" r="2"/>
    <circle cx="640" cy="105" r="1.5"/>
    <circle cx="780" cy="160" r="2"/>
    <circle cx="920" cy="130" r="1.5"/>
    <circle cx="1120" cy="180" r="2"/>
    <circle cx="300" cy="250" r="1.5"/>
    <circle cx="460" cy="230" r="1.5"/>
    <circle cx="870" cy="240" r="1.5"/>
  </g>
</svg>
